# xmcd CD database file
#
# Track frame offsets:
#	150
#	12087
#	24200
#	36887
#	49700
#	62525
#	74850
#	87912
#	99737
#	112400
#	125050
#	138187
#	151500
#	163975
#	177200
#	189062
#	202225
#	215137
#
# Disc length: 3037 seconds
#
# Revision: 0
# Processed by: cddbd v1.5.1PL2 Copyright (c) Steve Scherf et al.
# Submitted via: CDex 1.51
#
DISCID=030bdb12
DTITLE=Hoosier Hot Shots - The Definitive Hoosier Hotshots Collection Disc 2
DYEAR=1900
DGENRE=Country
TTITLE0=Rural Rhythm
TTITLE1=Connie's Got Connections in Connecticut
TTITLE2=My Wife Is on a Diet
TTITLE3=The Guy Who Stole My Wife
TTITLE4=Noah's Wife (Lived a Wonderful Life)
TTITLE5=Windmill Tillie
TTITLE6=Since We Put a Radio Out in the Henhouse
TTITLE7=Blues (My Naughty Sweetie Gives to Me)
TTITLE8=Let's Not and Say We Did
TTITLE9=There'll Be Some Changes Made
TTITLE10=My Bonnie
TTITLE11=Dude Cowboy
TTITLE12=When the Lightnin' Struck the Coon Creek Party Line
TTITLE13=One-Eyed Sam
TTITLE14=She's Got a Great Big Army of Friends
TTITLE15=She Was a Washout in the Blackout
TTITLE16=The Covered Wagon Rolled Right Along
TTITLE17=You'd Be Surprised
EXTD=
EXTT0=
EXTT1=
EXTT2=
EXTT3=
EXTT4=
EXTT5=
EXTT6=
EXTT7=
EXTT8=
EXTT9=
EXTT10=
EXTT11=
EXTT12=
EXTT13=
EXTT14=
EXTT15=
EXTT16=
EXTT17=
PLAYORDER=
